<svg width="161" height="26" viewBox="0 0 161 26" fill="none" xmlns="http://www.w3.org/2000/svg">
<path d="M10.525 4.81628L3.23225 24.9356L0.251595 24.9524L8.64887 2.87504L10.5704 2.86419L10.525 4.81628ZM16.6376 24.8599L9.32973 4.82302L9.28434 2.87145L11.2059 2.8606L19.6334 24.843L16.6376 24.8599ZM16.2594 16.7067V19.0973L3.88285 19.1672V16.7766L16.2594 16.7067ZM31.3987 8.40543V24.7766L28.5845 24.7925V8.42132L31.3987 8.40543ZM28.3726 4.08007C28.3726 3.62615 28.5088 3.24208 28.7812 2.92785C29.0636 2.61356 29.4771 2.45487 30.0218 2.4518C30.5564 2.44878 30.9649 2.60283 31.2474 2.91393C31.5399 3.22497 31.6862 3.60745 31.6862 4.06137C31.6862 4.49511 31.5399 4.86915 31.2474 5.1835C30.9649 5.4877 30.5564 5.64131 30.0218 5.64433C29.4771 5.6474 29.0636 5.49843 28.7812 5.19742C28.5088 4.88626 28.3726 4.51381 28.3726 4.08007ZM52.4085 21.4806V1.41763L55.2227 1.40174V24.6421L52.6506 24.6567L52.4085 21.4806ZM41.3937 16.7162V16.3984C41.3937 15.1476 41.545 14.012 41.8476 12.9915C42.1603 11.9609 42.5991 11.0758 43.1639 10.3363C43.7389 9.59666 44.4198 9.02795 45.2065 8.63011C46.0034 8.22214 46.891 8.01539 47.8695 8.00987C48.8983 8.00406 49.796 8.18056 50.5626 8.53936C51.3393 8.88802 51.995 9.4038 52.5296 10.0867C53.0742 10.7595 53.5029 11.5741 53.8156 12.5306C54.1283 13.4871 54.3452 14.5702 54.4662 15.78V17.172C54.3553 18.3729 54.1384 19.4535 53.8156 20.4136C53.5029 21.3736 53.0742 22.193 52.5296 22.8719C51.995 23.5508 51.3393 24.074 50.5626 24.4415C49.7859 24.7989 48.8781 24.9806 47.8392 24.9864C46.8809 24.9918 46.0034 24.79 45.2065 24.3809C44.4198 23.9718 43.7389 23.3956 43.1639 22.6525C42.5991 21.9092 42.1603 21.0341 41.8476 20.0272C41.545 19.0101 41.3937 17.9064 41.3937 16.7162ZM44.2079 16.3826V16.7003C44.2079 17.5173 44.2886 18.2835 44.45 18.9988C44.6215 19.714 44.8838 20.3429 45.2368 20.8856C45.5898 21.4283 46.0387 21.8545 46.5834 22.1641C47.1281 22.4636 47.7787 22.6113 48.5352 22.607C49.4632 22.6018 50.2247 22.4008 50.8198 22.004C51.4251 21.6072 51.9092 21.085 52.2723 20.4374C52.6355 19.7898 52.9179 19.0871 53.1196 18.3295V14.683C52.9986 14.1289 52.8221 13.5953 52.5901 13.0822C52.3682 12.5589 52.0757 12.0966 51.7125 11.6951C51.3595 11.2836 50.9207 10.9582 50.3962 10.7191C49.8818 10.4799 49.2715 10.3623 48.5654 10.3663C47.7988 10.3706 47.1382 10.5357 46.5834 10.8617C46.0387 11.1774 45.5898 11.6137 45.2368 12.1705C44.8838 12.7172 44.6215 13.3541 44.45 14.0814C44.2886 14.7984 44.2079 15.5655 44.2079 16.3826ZM75.4307 21.729V13.3013C75.4307 12.6557 75.2995 12.0966 75.0373 11.624C74.7851 11.1413 74.4018 10.7702 73.8874 10.5109C73.373 10.2515 72.7375 10.124 71.981 10.1282C71.2749 10.1322 70.6546 10.2568 70.12 10.5019C69.5955 10.7469 69.1819 11.067 68.8793 11.4621C68.5868 11.8571 68.4405 12.2816 68.4405 12.7355L65.6414 12.7513C65.6414 12.1663 65.7927 11.5854 66.0953 11.0087C66.3979 10.4321 66.8317 9.91016 67.3965 9.44297C67.9715 8.96563 68.6574 8.58854 69.4542 8.3117C70.2612 8.02471 71.1589 7.87842 72.1474 7.87285C73.3377 7.86613 74.3867 8.06195 75.2945 8.4603C76.2124 8.8586 76.9286 9.46482 77.443 10.279C77.9675 11.083 78.2298 12.0952 78.2298 13.3157V20.9415C78.2298 21.4862 78.2752 22.0659 78.3659 22.6807C78.4668 23.2955 78.6131 23.8242 78.8047 24.267V24.5091L75.8846 24.5255C75.7434 24.2035 75.6324 23.7755 75.5517 23.2413C75.471 22.6971 75.4307 22.193 75.4307 21.729ZM75.9148 14.5998L75.9451 16.5666L73.1158 16.5825C72.3189 16.587 71.6078 16.6566 70.9824 16.7913C70.357 16.9158 69.8325 17.1054 69.4088 17.36C68.9852 17.6145 68.6624 17.9341 68.4405 18.3187C68.2186 18.6931 68.1076 19.1325 68.1076 19.6369C68.1076 20.1513 68.2236 20.6197 68.4556 21.0421C68.6876 21.4644 69.0356 21.8004 69.4996 22.0499C69.9737 22.2893 70.5537 22.4071 71.2396 22.4032C72.097 22.3984 72.8535 22.2125 73.5091 21.8457C74.1648 21.4789 74.6843 21.0321 75.0676 20.5054C75.4609 19.9787 75.6728 19.4681 75.703 18.9737L76.8983 20.3135C76.8277 20.7376 76.6361 21.2077 76.3234 21.7239C76.0107 22.2401 75.5921 22.7367 75.0676 23.2138C74.5531 23.6807 73.9378 24.0725 73.2217 24.3893C72.5156 24.6958 71.7187 24.8517 70.8311 24.8567C69.7215 24.8629 68.7482 24.6515 67.911 24.2225C67.0838 23.7935 66.4383 23.2171 65.9743 22.4935C65.5204 21.7597 65.2934 20.9389 65.2934 20.031C65.2934 19.1535 65.4649 18.3808 65.8079 17.7132C66.1508 17.0354 66.6451 16.4728 67.2906 16.0253C67.9362 15.5678 68.7129 15.2204 69.6207 14.9833C70.5285 14.7462 71.5422 14.6245 72.6618 14.6181L75.9148 14.5998ZM91.6291 10.6377V24.4367L88.83 24.4525V8.0813L91.5534 8.06593L91.6291 10.6377ZM96.7431 7.94586L96.728 10.5484C96.496 10.4993 96.2741 10.4703 96.0623 10.4614C95.8605 10.4423 95.6285 10.4335 95.3663 10.435C94.7207 10.4387 94.1508 10.5428 93.6565 10.7473C93.1623 10.9518 92.7437 11.2366 92.4007 11.6017C92.0578 11.9667 91.7854 12.402 91.5837 12.9075C91.3921 13.4029 91.266 13.9483 91.2055 14.5437L90.4187 15.0021C90.4187 14.0136 90.5145 13.085 90.7062 12.2165C90.9079 11.3478 91.2155 10.5795 91.6291 9.91142C92.0427 9.23326 92.5672 8.70578 93.2026 8.32897C93.8482 7.94202 94.6148 7.74604 95.5024 7.74103C95.7042 7.7399 95.9362 7.7638 96.1984 7.81276C96.4607 7.85163 96.6422 7.89599 96.7431 7.94586Z" fill="black"/>
<path d="M111.092 24.3268L106.935 24.3503L106.963 22.2036L111.092 22.1803C112.513 22.1723 113.698 21.8694 114.646 21.2716C115.594 20.6647 116.305 19.8221 116.779 18.7439C117.262 17.6566 117.504 16.3883 117.504 14.9391V13.7223C117.504 12.583 117.367 11.572 117.093 10.6894C116.82 9.79775 116.419 9.04806 115.89 8.44037C115.362 7.82356 114.714 7.35781 113.949 7.04312C113.192 6.72838 112.322 6.57379 111.338 6.57935L106.853 6.60465V4.4445L111.338 4.41919C112.641 4.41183 113.83 4.62387 114.906 5.0553C115.981 5.47762 116.907 6.09674 117.681 6.91268C118.465 7.71946 119.067 8.70044 119.486 9.85562C119.905 11.0017 120.115 12.2948 120.115 13.7349V14.9243C120.115 16.3644 119.905 17.6645 119.486 18.8244C119.067 19.9752 118.461 20.9584 117.668 21.7741C116.884 22.5897 115.936 23.2194 114.824 23.6632C113.721 24.0978 112.477 24.319 111.092 24.3268ZM108.344 4.43609V24.3423L105.705 24.3572V4.45098L108.344 4.43609ZM135.435 24.4629C134.405 24.4687 133.471 24.3008 132.633 23.9592C131.803 23.6084 131.088 23.1157 130.486 22.481C129.894 21.8464 129.438 21.0924 129.119 20.2192C128.8 19.346 128.64 18.3899 128.64 17.3508V16.7766C128.64 15.5735 128.818 14.5015 129.174 13.5607C129.529 12.6108 130.012 11.806 130.623 11.1463C131.234 10.4866 131.926 9.98593 132.701 9.64432C133.476 9.30271 134.278 9.12956 135.107 9.12488C136.164 9.11892 137.076 9.29606 137.841 9.65633C138.616 10.0165 139.25 10.5234 139.742 11.1768C140.234 11.8212 140.599 12.5848 140.836 13.4676C141.073 14.3412 141.191 15.2976 141.191 16.3366V17.4714L130.144 17.5338V15.4693L138.662 15.4212V15.2298C138.625 14.5738 138.489 13.9365 138.252 13.3181C138.024 12.6996 137.659 12.1912 137.158 11.793C136.657 11.3948 135.973 11.1981 135.107 11.203C134.533 11.2062 134.004 11.3323 133.521 11.5811C133.038 11.8208 132.623 12.1786 132.277 12.6545C131.931 13.1304 131.662 13.7107 131.47 14.3954C131.279 15.0801 131.183 15.869 131.183 16.7623V17.3365C131.183 18.0383 131.279 18.6986 131.47 19.3173C131.671 19.9268 131.958 20.463 132.332 20.9257C132.715 21.3884 133.175 21.7504 133.713 22.0117C134.26 22.2729 134.879 22.4016 135.572 22.3976C136.465 22.3926 137.222 22.206 137.841 21.838C138.461 21.4699 139.004 20.9792 139.468 20.3659L141 21.574C140.681 22.0589 140.275 22.5215 139.783 22.9618C139.291 23.4021 138.685 23.7609 137.965 24.0384C137.254 24.3159 136.411 24.4574 135.435 24.4629ZM154.051 21.8012L158.097 9.26857L160.681 9.25398L155.363 24.077L153.668 24.0865L154.051 21.8012ZM150.674 9.31046L154.844 21.8651L155.131 24.0783L153.435 24.0878L148.076 9.32513L150.674 9.31046Z" fill="#49A6E9"/>
</svg>
